<svg xmlns="http://www.w3.org/2000/svg" width="270.8936767578125" height="293.8780517578125" viewBox="-33.00714111328125 -40.34868621826172 270.8936767578125 293.8780517578125"><title>Neo4j Graph Visualization</title><desc>Created using Neo4j (http://www.neo4j.com/)</desc><g class="layer relationships"><g class="relationship" transform="translate(208.88648730836627 45.46203575026822) rotate(211.59621098543107)"><path class="outline" fill="#A5ABB6" stroke="none" d="M 25 0.5 L 28.891773649526556 0.5 L 28.891773649526556 -0.5 L 25 -0.5 Z M 72.54021114952656 0.5 L 76.43198479905311 0.5 L 76.43198479905311 3.5 L 83.43198479905311 0 L 76.43198479905311 -3.5 L 76.43198479905311 -0.5 L 72.54021114952656 -0.5 Z"/><text text-anchor="middle" pointer-events="none" font-size="8px" fill="#000000" x="50.715992399526556" y="3" transform="rotate(180 50.715992399526556 0)" font-family="sans-serif">FLIES_TO</text></g><g class="relationship" transform="translate(116.52828819298925 -11.348688445313527) rotate(509.82486981973125)"><path class="outline" fill="#A5ABB6" stroke="none" d="M 25 0.5 L 28.558099071621065 0.5 L 28.558099071621065 -0.5 L 25 -0.5 Z M 72.20653657162106 0.5 L 75.76463564324213 0.5 L 75.76463564324213 3.5 L 82.76463564324213 0 L 75.76463564324213 -3.5 L 75.76463564324213 -0.5 L 72.20653657162106 -0.5 Z"/><text text-anchor="middle" pointer-events="none" font-size="8px" fill="#000000" x="50.382317821621065" y="3" transform="rotate(180 50.382317821621065 0)" font-family="sans-serif">FLIES_TO</text></g><g class="relationship" transform="translate(-2.0162864274205754 147.52281009505396) rotate(283.6269771552377)"><path class="outline" fill="#A5ABB6" stroke="none" d="M 25 0.5 L 28.54425414232407 0.5 L 28.54425414232407 -0.5 L 25 -0.5 Z M 72.19269164232406 0.5 L 75.73694578464814 0.5 L 75.73694578464814 3.5 L 82.73694578464814 0 L 75.73694578464814 -3.5 L 75.73694578464814 -0.5 L 72.19269164232406 -0.5 Z"/><text text-anchor="middle" pointer-events="none" font-size="8px" fill="#000000" x="50.36847289232407" y="3" font-family="sans-serif">FLIES_TO</text></g><g class="relationship" transform="translate(-2.0162864274205754 147.52281009505396) rotate(401.8585063799512)"><path class="outline" fill="#A5ABB6" stroke="none" d="M 12.066987298107785,21.900635094610966 L 12.933012701892222,21.400635094610966 A 45.521796826665614 45.521796826665614 0 0 0 29.40848199717547,37.95440735664229 L 28.90438143915266,38.81805232270247 A 46.521796826665614 46.521796826665614 0 0 1 12.066987298107785,21.900635094610966 Z M 71.32959455373658,41.11657747873498 L 70.921752409446,40.20352502386699 A 45.521796826665614 45.521796826665614 0 0 0 89.08924457740196,25.5266488940403 L 86.66843507788417,23.754734289144093 L 93.62718023874606,20.173412495981513 L 92.316990576759,27.889201700568574 L 89.89618107724121,26.117287095672367 A 46.521796826665614 46.521796826665614 0 0 1 71.32959455373658,41.11657747873498"/><text text-anchor="middle" pointer-events="none" font-size="8px" fill="#000000" x="49.866314655795065" y="47.59413826668923" font-family="sans-serif">FLIES_TO</text></g><g class="relationship" transform="translate(-2.0162864274205754 147.52281009505396) rotate(401.8585063799512)"><path class="outline" fill="#A5ABB6" stroke="none" d="M 21.40063509461097,12.933012701892217 L 21.90063509461097,12.06698729810778 A 60.91082017017503 60.91082017017503 0 0 0 29.426767617048398,15.746947391610902 L 29.05032747884981,16.67338833541306 A 61.91082017017503 61.91082017017503 0 0 1 21.40063509461097,12.933012701892217 Z M 72.11360050580572,17.990246867394944 L 71.79447122805107,17.042535675058495 A 60.91082017017503 60.91082017017503 0 0 0 79.53139462961504,13.829314034181962 L 78.19294526836889,11.144439119520241 L 86.01917765736674,11.15374467705124 L 81.31599377794323,17.40914725373092 L 79.97754441669709,14.724272339069202 A 61.91082017017503 61.91082017017503 0 0 1 72.11360050580572,17.990246867394944"/><text text-anchor="middle" pointer-events="none" font-size="8px" fill="#000000" x="50.47900304355831" y="23.698796924004995" font-family="sans-serif">FLIES_TO</text></g><g class="relationship" transform="translate(-2.0162864274205754 147.52281009505396) rotate(401.8585063799512)"><path class="outline" fill="#A5ABB6" stroke="none" d="M 25 0.5 L 28.87234888977389 0.5 L 28.87234888977389 -0.5 L 25 -0.5 Z M 72.52078638977389 0.5 L 76.39313527954778 0.5 L 76.39313527954778 3.5 L 83.39313527954778 0 L 76.39313527954778 -3.5 L 76.39313527954778 -0.5 L 72.52078638977389 -0.5 Z"/><text text-anchor="middle" pointer-events="none" font-size="8px" fill="#000000" x="50.69656763977389" y="3" font-family="sans-serif">FLIES_TO</text></g><g class="relationship" transform="translate(-2.0162864274205754 147.52281009505396) rotate(401.8585063799512)"><path class="outline" fill="#A5ABB6" stroke="none" d="M 21.40063509461097,-12.933012701892217 L 21.90063509461097,-12.06698729810778 A 60.91082017017503 60.91082017017503 0 0 1 29.426767617048405,-15.746947391610902 L 29.050327478849816,-16.67338833541306 A 61.91082017017503 61.91082017017503 0 0 0 21.40063509461097,-12.933012701892217 Z M 72.1136005058057,-17.99024686739496 L 71.79447122805104,-17.042535675058502 A 60.91082017017503 60.91082017017503 0 0 1 79.53139462961504,-13.829314034181962 L 78.19294526836889,-11.144439119520241 L 86.01917765736674,-11.15374467705124 L 81.31599377794323,-17.40914725373092 L 79.97754441669709,-14.724272339069202 A 61.91082017017503 61.91082017017503 0 0 0 72.1136005058057,-17.99024686739496"/><text text-anchor="middle" pointer-events="none" font-size="8px" fill="#000000" x="50.4790030435583" y="-17.698796924004995" font-family="sans-serif">FLIES_TO</text></g><g class="relationship" transform="translate(-2.0162864274205754 147.52281009505396) rotate(401.8585063799512)"><path class="outline" fill="#A5ABB6" stroke="none" d="M 12.066987298107785,-21.900635094610966 L 12.933012701892222,-21.400635094610966 A 45.521796826665614 45.521796826665614 0 0 1 29.408481997175468,-37.95440735664229 L 28.904381439152658,-38.81805232270247 A 46.521796826665614 46.521796826665614 0 0 0 12.066987298107785,-21.900635094610966 Z M 71.32959455373657,-41.11657747873498 L 70.92175240944599,-40.203525023867 A 45.521796826665614 45.521796826665614 0 0 1 89.08924457740196,-25.5266488940403 L 86.66843507788417,-23.754734289144093 L 93.62718023874606,-20.173412495981513 L 92.316990576759,-27.889201700568574 L 89.89618107724121,-26.117287095672367 A 46.521796826665614 46.521796826665614 0 0 0 71.32959455373657,-41.11657747873498"/><text text-anchor="middle" pointer-events="none" font-size="8px" fill="#000000" x="49.86631465579506" y="-41.59413826668923" font-family="sans-serif">FLIES_TO</text></g></g><g class="layer nodes"><g class="node" transform="translate(208.88648730836627,45.46203575026822)"><circle class="outline" cx="0" cy="0" r="25" fill="#ECB5C9" stroke="#da7298" stroke-width="2px"/><text text-anchor="middle" pointer-events="none" font-family="sans-serif" dy="1.5625" font-size="25" fill="#2A2C34"/><text text-anchor="middle" pointer-events="none" x="0" y="5" font-size="10px" fill="#2A2C34" font-family="sans-serif"> LAX</text></g><g class="node" transform="translate(78.71437827914629,219.85282842607765)"><circle class="outline" cx="0" cy="0" r="25" fill="#ECB5C9" stroke="#da7298" stroke-width="2px"/><text text-anchor="middle" pointer-events="none" font-family="sans-serif" dy="1.5625" font-size="25" fill="#2A2C34"/><text text-anchor="middle" pointer-events="none" x="0" y="5" font-size="10px" fill="#2A2C34" font-family="sans-serif"> DAY</text></g><g class="node" transform="translate(116.52828819298925,-11.348688445313527)"><circle class="outline" cx="0" cy="0" r="25" fill="#ECB5C9" stroke="#da7298" stroke-width="2px"/><text text-anchor="middle" pointer-events="none" font-family="sans-serif" dy="1.5625" font-size="25" fill="#2A2C34"/><text text-anchor="middle" pointer-events="none" x="0" y="5" font-size="10px" fill="#2A2C34" font-family="sans-serif"> LAS</text></g><g class="node" transform="translate(23.36650840576634,42.81864010426251)"><circle class="outline" cx="0" cy="0" r="25" fill="#ECB5C9" stroke="#da7298" stroke-width="2px"/><text text-anchor="middle" pointer-events="none" font-family="sans-serif" dy="1.5625" font-size="25" fill="#2A2C34"/><text text-anchor="middle" pointer-events="none" x="0" y="5" font-size="10px" fill="#2A2C34" font-family="sans-serif"> DEN</text></g><g class="node" transform="translate(-2.0162864274205754,147.52281009505396)"><circle class="outline" cx="0" cy="0" r="25" fill="#ECB5C9" stroke="#da7298" stroke-width="2px"/><text text-anchor="middle" pointer-events="none" font-family="sans-serif" dy="1.5625" font-size="25" fill="#2A2C34"/><text text-anchor="middle" pointer-events="none" x="0" y="5" font-size="10px" fill="#2A2C34" font-family="sans-serif"> MSP</text></g></g></svg>