<svg xmlns="http://www.w3.org/2000/svg" width="181.49913024902344" height="179.80923461914062" viewBox="-9.343509674072266 14.05029296875 181.49913024902344 179.80923461914062"><title>Neo4j Graph Visualization</title><desc>Created using Neo4j (http://www.neo4j.com/)</desc><g class="layer relationships"><g class="relationship" transform="translate(38.771513319957066 63.22570421537519) rotate(432.9379703670704)"><path class="outline" fill="#A5ABB6" stroke="none" d="M 12.066987298107785,21.900635094610966 L 12.933012701892222,21.400635094610966 A 44.27918668893235 44.27918668893235 0 0 0 28.418649911209013,37.18213104285618 L 27.902351735210072,38.03853993670313 A 45.27918668893235 45.27918668893235 0 0 1 12.066987298107785,21.900635094610966 Z M 70.24703422835763,40.376161455365605 L 69.8281415233,39.468125717275136 A 44.27918668893235 44.27918668893235 0 0 0 86.95680759621501,25.487089535874713 L 84.53962943437824,23.71022439356948 L 91.50568928856669,20.14315134863978 L 90.17971181199738,27.856243058948355 L 87.7625336501606,26.07937791664312 A 45.27918668893235 45.27918668893235 0 0 1 70.24703422835763,40.376161455365605"/><text text-anchor="middle" pointer-events="none" font-size="8px" fill="#000000" x="48.81165407815008" y="46.972150629982195" font-family="sans-serif">FLIES_TO</text></g><g class="relationship" transform="translate(38.771513319957066 63.22570421537519) rotate(349.06073204226936)"><path class="outline" fill="#A5ABB6" stroke="none" d="M 24.018736134675446,6.953439040707552 L 24.277555179777966,5.987513214418485 A 104.33527198611509 104.33527198611509 0 0 0 28.08532653776781,6.931447472938956 L 27.86300302562845,7.906420424333007 A 105.33527198611509 105.33527198611509 0 0 1 24.018736134675446,6.953439040707552 Z M 71.39794330904462,8.603939610615242 L 71.20696803282412,7.622344763505453 A 104.33527198611509 104.33527198611509 0 0 0 75.04302470481873,6.800880334341507 L 74.35979897664184,3.8797157370691875 L 81.97294638648363,5.693547734807469 L 75.95399234238793,10.695766464037932 L 75.27076661421104,7.774601866765613 A 105.33527198611509 105.33527198611509 0 0 1 71.39794330904462,8.603939610615242"/><text text-anchor="middle" pointer-events="none" font-size="8px" fill="#000000" x="49.60204975367709" y="13.02919805260511" font-family="sans-serif">FLIES_TO</text></g><g class="relationship" transform="translate(143.1556179851031 43.05029107544363) rotate(529.0607320422694)"><path class="outline" fill="#A5ABB6" stroke="none" d="M 24.018736134675446,6.953439040707552 L 24.277555179777966,5.987513214418485 A 104.33527198611509 104.33527198611509 0 0 0 28.08532653776781,6.931447472938956 L 27.86300302562845,7.906420424333007 A 105.33527198611509 105.33527198611509 0 0 1 24.018736134675446,6.953439040707552 Z M 71.39794330904462,8.603939610615242 L 71.20696803282412,7.622344763505453 A 104.33527198611509 104.33527198611509 0 0 0 75.04302470481873,6.800880334341507 L 74.35979897664184,3.8797157370691875 L 81.97294638648363,5.693547734807469 L 75.95399234238793,10.695766464037932 L 75.27076661421104,7.774601866765613 A 105.33527198611509 105.33527198611509 0 0 1 71.39794330904462,8.603939610615242"/><text text-anchor="middle" pointer-events="none" font-size="8px" fill="#000000" x="49.60204975367709" y="13.02919805260511" transform="rotate(180 49.60204975367709 10.02919805260511)" font-family="sans-serif">FLIES_TO</text></g><g class="relationship" transform="translate(38.771513319957066 63.22570421537519) rotate(432.9379703670704)"><path class="outline" fill="#A5ABB6" stroke="none" d="M 21.40063509461097,12.933012701892217 L 21.90063509461097,12.06698729810778 A 58.7585562776209 58.7585562776209 0 0 0 28.42944739359466,15.313977031851039 L 28.040559931284264,16.23526229801878 A 59.7585562776209 59.7585562776209 0 0 1 21.40063509461097,12.933012701892217 Z M 71.04811435080663,17.574762523306518 L 70.71731316769993,16.631062053212744 A 58.7585562776209 58.7585562776209 0 0 0 77.43553463515983,13.796660409028252 L 76.10012292363858,11.110273325837914 L 83.92633978119082,11.128430929343729 L 79.21608358385483,17.378509853282036 L 77.88067187233358,14.692122770091697 A 59.7585562776209 59.7585562776209 0 0 1 71.04811435080663,17.574762523306518"/><text text-anchor="middle" pointer-events="none" font-size="8px" fill="#000000" x="49.43515878012127" y="23.410420032279347" font-family="sans-serif">FLIES_TO</text></g><g class="relationship" transform="translate(38.771513319957066 63.22570421537519) rotate(432.9379703670704)"><path class="outline" fill="#A5ABB6" stroke="none" d="M 25 0.5 L 27.83223065388848 0.5 L 27.83223065388848 -0.5 L 25 -0.5 Z M 71.48066815388847 0.5 L 74.31289880777696 0.5 L 74.31289880777696 3.5 L 81.31289880777696 0 L 74.31289880777696 -3.5 L 74.31289880777696 -0.5 L 71.48066815388847 -0.5 Z"/><text text-anchor="middle" pointer-events="none" font-size="8px" fill="#000000" x="49.65644940388848" y="3" font-family="sans-serif">FLIES_TO</text></g><g class="relationship" transform="translate(38.771513319957066 63.22570421537519) rotate(432.9379703670704)"><path class="outline" fill="#A5ABB6" stroke="none" d="M 21.40063509461097,-12.933012701892217 L 21.90063509461097,-12.06698729810778 A 58.7585562776209 58.7585562776209 0 0 1 28.429447393594664,-15.313977031851046 L 28.040559931284267,-16.23526229801879 A 59.7585562776209 59.7585562776209 0 0 0 21.40063509461097,-12.933012701892217 Z M 71.04811435080663,-17.574762523306518 L 70.71731316769993,-16.631062053212744 A 58.7585562776209 58.7585562776209 0 0 1 77.43553463515983,-13.796660409028252 L 76.10012292363858,-11.110273325837914 L 83.92633978119082,-11.128430929343729 L 79.21608358385483,-17.378509853282036 L 77.88067187233358,-14.692122770091697 A 59.7585562776209 59.7585562776209 0 0 0 71.04811435080663,-17.574762523306518"/><text text-anchor="middle" pointer-events="none" font-size="8px" fill="#000000" x="49.43515878012126" y="-17.410420032279347" font-family="sans-serif">FLIES_TO</text></g><g class="relationship" transform="translate(38.771513319957066 63.22570421537519) rotate(432.9379703670704)"><path class="outline" fill="#A5ABB6" stroke="none" d="M 12.066987298107785,-21.900635094610966 L 12.933012701892222,-21.400635094610966 A 44.27918668893235 44.27918668893235 0 0 1 28.418649911209016,-37.18213104285618 L 27.902351735210075,-38.03853993670313 A 45.27918668893235 45.27918668893235 0 0 0 12.066987298107785,-21.900635094610966 Z M 70.24703422835763,-40.376161455365605 L 69.8281415233,-39.468125717275136 A 44.27918668893235 44.27918668893235 0 0 1 86.95680759621501,-25.487089535874713 L 84.53962943437824,-23.71022439356948 L 91.50568928856669,-20.14315134863978 L 90.17971181199738,-27.856243058948355 L 87.7625336501606,-26.07937791664312 A 45.27918668893235 45.27918668893235 0 0 0 70.24703422835763,-40.376161455365605"/><text text-anchor="middle" pointer-events="none" font-size="8px" fill="#000000" x="48.81165407815008" y="-40.972150629982195" font-family="sans-serif">FLIES_TO</text></g></g><g class="layer nodes"><g class="node" transform="translate(69.96444597846052,164.85952439878997)"><circle class="outline" cx="0" cy="0" r="25" fill="#ECB5C9" stroke="#da7298" stroke-width="2px"/><text text-anchor="middle" pointer-events="none" font-family="sans-serif" dy="1.5625" font-size="25" fill="#2A2C34"/><text text-anchor="middle" pointer-events="none" x="0" y="5" font-size="10px" fill="#2A2C34" font-family="sans-serif"> GRR</text></g><g class="node" transform="translate(143.1556179851031,43.05029107544363)"><circle class="outline" cx="0" cy="0" r="25" fill="#ECB5C9" stroke="#da7298" stroke-width="2px"/><text text-anchor="middle" pointer-events="none" font-family="sans-serif" dy="1.5625" font-size="25" fill="#2A2C34"/><text text-anchor="middle" pointer-events="none" x="0" y="5" font-size="10px" fill="#2A2C34" font-family="sans-serif"> MSN</text></g><g class="node" transform="translate(38.771513319957066,63.22570421537519)"><circle class="outline" cx="0" cy="0" r="25" fill="#ECB5C9" stroke="#da7298" stroke-width="2px"/><text text-anchor="middle" pointer-events="none" font-family="sans-serif" dy="1.5625" font-size="25" fill="#2A2C34"/><text text-anchor="middle" pointer-events="none" x="0" y="5" font-size="10px" fill="#2A2C34" font-family="sans-serif"> ORD</text></g></g></svg>