<svg xmlns="http://www.w3.org/2000/svg" width="288.5928649902344" height="281.9986877441406" viewBox="-52.312599182128906 -41.87229919433594 288.5928649902344 281.9986877441406"><title>Neo4j Graph Visualization</title><desc>Created using Neo4j (http://www.neo4j.com/)</desc><g class="layer relationships"><g class="relationship" transform="translate(100.85645530084646 -12.872297049790205) rotate(454.6598204095911)"><path class="outline" fill="#A5ABB6" stroke="none" d="M 25 0.5 L 32.659145791855416 0.5 L 32.659145791855416 -0.5 L 25 -0.5 Z M 78.22164579185542 0.5 L 85.88079158371083 0.5 L 85.88079158371083 3.5 L 92.88079158371083 0 L 85.88079158371083 -3.5 L 85.88079158371083 -0.5 L 78.22164579185542 -0.5 Z"/><text text-anchor="middle" pointer-events="none" font-size="8px" fill="#000000" x="55.440395791855416" y="3" transform="rotate(180 55.440395791855416 0)" font-family="sans-serif">ACTED_IN</text></g><g class="relationship" transform="translate(183.74383811176946 32.67058641317506) rotate(502.1127232689565)"><path class="outline" fill="#A5ABB6" stroke="none" d="M 25 0.5 L 32.2980518261219 0.5 L 32.2980518261219 -0.5 L 25 -0.5 Z M 77.8605518261219 0.5 L 85.1586036522438 0.5 L 85.1586036522438 3.5 L 92.1586036522438 0 L 85.1586036522438 -3.5 L 85.1586036522438 -0.5 L 77.8605518261219 -0.5 Z"/><text text-anchor="middle" pointer-events="none" font-size="8px" fill="#000000" x="55.0793018261219" y="3" transform="rotate(180 55.0793018261219 0)" font-family="sans-serif">ACTED_IN</text></g><g class="relationship" transform="translate(148.29970355563293 207.50857923481635) rotate(241.00548392588217)"><path class="outline" fill="#A5ABB6" stroke="none" d="M 25 0.5 L 32.535324080382765 0.5 L 32.535324080382765 -0.5 L 25 -0.5 Z M 78.09782408038276 0.5 L 85.63314816076553 0.5 L 85.63314816076553 3.5 L 92.63314816076553 0 L 85.63314816076553 -3.5 L 85.63314816076553 -0.5 L 78.09782408038276 -0.5 Z"/><text text-anchor="middle" pointer-events="none" font-size="8px" fill="#000000" x="55.316574080382765" y="3" transform="rotate(180 55.316574080382765 0)" font-family="sans-serif">ACTED_IN</text></g><g class="relationship" transform="translate(207.28024555443918 124.26085341489166) rotate(189.61056707921318)"><path class="outline" fill="#A5ABB6" stroke="none" d="M 25 0.5 L 32.544542678264236 0.5 L 32.544542678264236 -0.5 L 25 -0.5 Z M 78.10704267826424 0.5 L 85.65158535652847 0.5 L 85.65158535652847 3.5 L 92.65158535652847 0 L 85.65158535652847 -3.5 L 85.65158535652847 -0.5 L 78.10704267826424 -0.5 Z"/><text text-anchor="middle" pointer-events="none" font-size="8px" fill="#000000" x="55.325792678264236" y="3" transform="rotate(180 55.325792678264236 0)" font-family="sans-serif">ACTED_IN</text></g><g class="relationship" transform="translate(3.801862226144401 26.686082050088476) rotate(401.69733752415937)"><path class="outline" fill="#A5ABB6" stroke="none" d="M 25 0.5 L 31.633519620451864 0.5 L 31.633519620451864 -0.5 L 25 -0.5 Z M 78.52414462045186 0.5 L 85.15766424090373 0.5 L 85.15766424090373 3.5 L 92.15766424090373 0 L 85.15766424090373 -3.5 L 85.15766424090373 -0.5 L 78.52414462045186 -0.5 Z"/><text text-anchor="middle" pointer-events="none" font-size="8px" fill="#000000" x="55.078832120451864" y="3" font-family="sans-serif">DIRECTED</text></g><g class="relationship" transform="translate(43.7000191937756 211.12638918682285) rotate(294.0716308268948)"><path class="outline" fill="#A5ABB6" stroke="none" d="M 25 0.5 L 36.93929963394092 0.5 L 36.93929963394092 -0.5 L 25 -0.5 Z M 72.71273713394092 0.5 L 84.65203676788184 0.5 L 84.65203676788184 3.5 L 91.65203676788184 0 L 84.65203676788184 -3.5 L 84.65203676788184 -0.5 L 72.71273713394092 -0.5 Z"/><text text-anchor="middle" pointer-events="none" font-size="8px" fill="#000000" x="54.82601838394092" y="3" font-family="sans-serif">WROTE</text></g><g class="relationship" transform="translate(-23.312601175622337 128.8291063700232) rotate(348.07040123764875)"><path class="outline" fill="#A5ABB6" stroke="none" d="M 25 0.5 L 37.174297956173504 0.5 L 37.174297956173504 -0.5 L 25 -0.5 Z M 72.9477354561735 0.5 L 85.12203341234701 0.5 L 85.12203341234701 3.5 L 92.12203341234701 0 L 85.12203341234701 -3.5 L 85.12203341234701 -0.5 L 72.9477354561735 -0.5 Z"/><text text-anchor="middle" pointer-events="none" font-size="8px" fill="#000000" x="55.061016706173504" y="3" font-family="sans-serif">WROTE</text></g></g><g class="layer nodes"><g class="node" transform="translate(148.29970355563293,207.50857923481635)"><circle class="outline" cx="0" cy="0" r="25" fill="#F79767" stroke="#f36924" stroke-width="2px"/><text text-anchor="middle" pointer-events="none" font-family="sans-serif" dy="1.5625" font-size="25" fill="#FFFFFF"/><text text-anchor="middle" pointer-events="none" x="0" y="5" font-size="10px" fill="#FFFFFF" font-family="sans-serif"> Sebastian</text></g><g class="node" transform="translate(91.27986924572953,104.61885165483014)"><circle class="outline" cx="0" cy="0" r="25" fill="#57C7E3" stroke="#23b3d7" stroke-width="2px"/><text text-anchor="middle" pointer-events="none" font-family="sans-serif" dy="1.5625" font-size="25" fill="#2A2C34"/><text text-anchor="middle" pointer-events="none" font-family="sans-serif" dy="1.5625" font-size="25" fill="#2A2C34"/><text text-anchor="middle" pointer-events="none" font-family="sans-serif" dy="1.5625" font-size="25" fill="#2A2C34"/><text text-anchor="middle" pointer-events="none" x="0" y="-5" font-size="10px" fill="#2A2C34" font-family="sans-serif"> Captain</text><text text-anchor="middle" pointer-events="none" x="0" y="5" font-size="10px" fill="#2A2C34" font-family="sans-serif"> America:</text><text text-anchor="middle" pointer-events="none" x="0" y="15" font-size="10px" fill="#2A2C34" font-family="sans-serif"> The Fi…</text></g><g class="node" transform="translate(207.28024555443918,124.26085341489166)"><circle class="outline" cx="0" cy="0" r="25" fill="#F79767" stroke="#f36924" stroke-width="2px"/><text text-anchor="middle" pointer-events="none" font-family="sans-serif" dy="1.5625" font-size="25" fill="#FFFFFF"/><text text-anchor="middle" pointer-events="none" font-family="sans-serif" dy="1.5625" font-size="25" fill="#FFFFFF"/><text text-anchor="middle" pointer-events="none" x="0" y="0" font-size="10px" fill="#FFFFFF" font-family="sans-serif"> Tommy</text><text text-anchor="middle" pointer-events="none" x="0" y="10" font-size="10px" fill="#FFFFFF" font-family="sans-serif"> Lee Jon…</text></g><g class="node" transform="translate(183.74383811176946,32.67058641317506)"><circle class="outline" cx="0" cy="0" r="25" fill="#F79767" stroke="#f36924" stroke-width="2px"/><text text-anchor="middle" pointer-events="none" font-family="sans-serif" dy="1.5625" font-size="25" fill="#FFFFFF"/><text text-anchor="middle" pointer-events="none" font-family="sans-serif" dy="1.5625" font-size="25" fill="#FFFFFF"/><text text-anchor="middle" pointer-events="none" x="0" y="0" font-size="10px" fill="#FFFFFF" font-family="sans-serif"> Hayley</text><text text-anchor="middle" pointer-events="none" x="0" y="10" font-size="10px" fill="#FFFFFF" font-family="sans-serif"> Atwell</text></g><g class="node" transform="translate(100.85645530084646,-12.872297049790205)"><circle class="outline" cx="0" cy="0" r="25" fill="#F79767" stroke="#f36924" stroke-width="2px"/><text text-anchor="middle" pointer-events="none" font-family="sans-serif" dy="1.5625" font-size="25" fill="#FFFFFF"/><text text-anchor="middle" pointer-events="none" font-family="sans-serif" dy="1.5625" font-size="25" fill="#FFFFFF"/><text text-anchor="middle" pointer-events="none" x="0" y="0" font-size="10px" fill="#FFFFFF" font-family="sans-serif"> Chris</text><text text-anchor="middle" pointer-events="none" x="0" y="10" font-size="10px" fill="#FFFFFF" font-family="sans-serif"> Evans</text></g><g class="node" transform="translate(3.801862226144401,26.686082050088476)"><circle class="outline" cx="0" cy="0" r="25" fill="#F79767" stroke="#f36924" stroke-width="2px"/><text text-anchor="middle" pointer-events="none" font-family="sans-serif" dy="1.5625" font-size="25" fill="#FFFFFF"/><text text-anchor="middle" pointer-events="none" font-family="sans-serif" dy="1.5625" font-size="25" fill="#FFFFFF"/><text text-anchor="middle" pointer-events="none" x="0" y="0" font-size="10px" fill="#FFFFFF" font-family="sans-serif"> Joe</text><text text-anchor="middle" pointer-events="none" x="0" y="10" font-size="10px" fill="#FFFFFF" font-family="sans-serif"> Johnston</text></g><g class="node" transform="translate(-23.312601175622337,128.8291063700232)"><circle class="outline" cx="0" cy="0" r="25" fill="#F79767" stroke="#f36924" stroke-width="2px"/><text text-anchor="middle" pointer-events="none" font-family="sans-serif" dy="1.5625" font-size="25" fill="#FFFFFF"/><text text-anchor="middle" pointer-events="none" font-family="sans-serif" dy="1.5625" font-size="25" fill="#FFFFFF"/><text text-anchor="middle" pointer-events="none" x="0" y="0" font-size="10px" fill="#FFFFFF" font-family="sans-serif"> Stephen</text><text text-anchor="middle" pointer-events="none" x="0" y="10" font-size="10px" fill="#FFFFFF" font-family="sans-serif"> McFeely</text></g><g class="node" transform="translate(43.7000191937756,211.12638918682285)"><circle class="outline" cx="0" cy="0" r="25" fill="#F79767" stroke="#f36924" stroke-width="2px"/><text text-anchor="middle" pointer-events="none" font-family="sans-serif" dy="1.5625" font-size="25" fill="#FFFFFF"/><text text-anchor="middle" pointer-events="none" x="0" y="5" font-size="10px" fill="#FFFFFF" font-family="sans-serif"> Christop…</text></g></g></svg>