<svg xmlns="http://www.w3.org/2000/svg" width="296.6162109375" height="294.8424377441406" viewBox="-57.37403869628906 -39.69098663330078 296.6162109375 294.8424377441406"><title>Neo4j Graph Visualization</title><desc>Created using Neo4j (http://www.neo4j.com/)</desc><g class="layer relationships"><g class="relationship" transform="translate(135.0059807416117 226.15144377526946) rotate(248.2372786861867)"><path class="outline" fill="#A5ABB6" stroke="none" d="M 25 0.5 L 35.36617685766777 0.5 L 35.36617685766777 -0.5 L 25 -0.5 Z M 80.92867685766777 0.5 L 91.29485371533553 0.5 L 91.29485371533553 3.5 L 98.29485371533553 0 L 91.29485371533553 -3.5 L 91.29485371533553 -0.5 L 80.92867685766777 -0.5 Z"/><text text-anchor="middle" pointer-events="none" font-size="8px" fill="#000000" x="58.14742685766777" y="3" transform="rotate(180 58.14742685766777 0)" font-family="sans-serif">ACTED_IN</text></g><g class="relationship" transform="translate(199.48591868730557 167.58720613171357) rotate(206.91606661089168)"><path class="outline" fill="#A5ABB6" stroke="none" d="M 25 0.5 L 35.50904843406566 0.5 L 35.50904843406566 -0.5 L 25 -0.5 Z M 81.07154843406566 0.5 L 91.58059686813132 0.5 L 91.58059686813132 3.5 L 98.58059686813132 0 L 91.58059686813132 -3.5 L 91.58059686813132 -0.5 L 81.07154843406566 -0.5 Z"/><text text-anchor="middle" pointer-events="none" font-size="8px" fill="#000000" x="58.29029843406566" y="3" transform="rotate(180 58.29029843406566 0)" font-family="sans-serif">ACTED_IN</text></g><g class="relationship" transform="translate(210.2421631921717 88.45240955650593) rotate(529.1454318919231)"><path class="outline" fill="#A5ABB6" stroke="none" d="M 25 0.5 L 35.295170367989826 0.5 L 35.295170367989826 -0.5 L 25 -0.5 Z M 80.85767036798983 0.5 L 91.15284073597965 0.5 L 91.15284073597965 3.5 L 98.15284073597965 0 L 91.15284073597965 -3.5 L 91.15284073597965 -0.5 L 80.85767036798983 -0.5 Z"/><text text-anchor="middle" pointer-events="none" font-size="8px" fill="#000000" x="58.076420367989826" y="3" transform="rotate(180 58.076420367989826 0)" font-family="sans-serif">ACTED_IN</text></g><g class="relationship" transform="translate(173.6291095357339 20.536453162090098) rotate(492.7897479969113)"><path class="outline" fill="#A5ABB6" stroke="none" d="M 25 0.5 L 35.12971813242991 0.5 L 35.12971813242991 -0.5 L 25 -0.5 Z M 82.0203431324299 0.5 L 92.15006126485981 0.5 L 92.15006126485981 3.5 L 99.15006126485981 0 L 92.15006126485981 -3.5 L 92.15006126485981 -0.5 L 82.0203431324299 -0.5 Z"/><text text-anchor="middle" pointer-events="none" font-size="8px" fill="#000000" x="58.57503063242991" y="3" transform="rotate(180 58.57503063242991 0)" font-family="sans-serif">DIRECTED</text></g><g class="relationship" transform="translate(103.07006614369455 -10.690988515396699) rotate(456.4255539563764)"><path class="outline" fill="#A5ABB6" stroke="none" d="M 25 0.5 L 35.272997903684086 0.5 L 35.272997903684086 -0.5 L 25 -0.5 Z M 80.83549790368409 0.5 L 91.10849580736817 0.5 L 91.10849580736817 3.5 L 98.10849580736817 0 L 91.10849580736817 -3.5 L 91.10849580736817 -0.5 L 80.83549790368409 -0.5 Z"/><text text-anchor="middle" pointer-events="none" font-size="8px" fill="#000000" x="58.054247903684086" y="3" transform="rotate(180 58.054247903684086 0)" font-family="sans-serif">ACTED_IN</text></g><g class="relationship" transform="translate(24.99983361982755 6.1946495567489155) rotate(418.62920524499543)"><path class="outline" fill="#A5ABB6" stroke="none" d="M 25 0.5 L 35.47062105044077 0.5 L 35.47062105044077 -0.5 L 25 -0.5 Z M 81.03312105044077 0.5 L 91.50374210088154 0.5 L 91.50374210088154 3.5 L 98.50374210088154 0 L 91.50374210088154 -3.5 L 91.50374210088154 -0.5 L 81.03312105044077 -0.5 Z"/><text text-anchor="middle" pointer-events="none" font-size="8px" fill="#000000" x="58.25187105044077" y="3" font-family="sans-serif">ACTED_IN</text></g><g class="relationship" transform="translate(-28.374038388009872 75.07630784594059) rotate(377.26391828866593)"><path class="outline" fill="#A5ABB6" stroke="none" d="M 25 0.5 L 35.32775057904225 0.5 L 35.32775057904225 -0.5 L 25 -0.5 Z M 80.89025057904226 0.5 L 91.2180011580845 0.5 L 91.2180011580845 3.5 L 98.2180011580845 0 L 91.2180011580845 -3.5 L 91.2180011580845 -0.5 L 80.89025057904226 -0.5 Z"/><text text-anchor="middle" pointer-events="none" font-size="8px" fill="#000000" x="58.10900057904225" y="3" font-family="sans-serif">ACTED_IN</text></g><g class="relationship" transform="translate(-20.67403212577278 164.98012099279913) rotate(334.12573388102624)"><path class="outline" fill="#A5ABB6" stroke="none" d="M 25 0.5 L 39.72263902876694 0.5 L 39.72263902876694 -0.5 L 25 -0.5 Z M 75.49607652876693 0.5 L 90.21871555753388 0.5 L 90.21871555753388 3.5 L 97.21871555753388 0 L 90.21871555753388 -3.5 L 90.21871555753388 -0.5 L 75.49607652876693 -0.5 Z"/><text text-anchor="middle" pointer-events="none" font-size="8px" fill="#000000" x="57.60935777876694" y="3" font-family="sans-serif">WROTE</text></g><g class="relationship" transform="translate(44.80883800545193 225.50846714933513) rotate(291.3393236380712)"><path class="outline" fill="#A5ABB6" stroke="none" d="M 25 0.5 L 39.73590148687758 0.5 L 39.73590148687758 -0.5 L 25 -0.5 Z M 75.50933898687758 0.5 L 90.24524047375516 0.5 L 90.24524047375516 3.5 L 97.24524047375516 0 L 90.24524047375516 -3.5 L 90.24524047375516 -0.5 L 75.50933898687758 -0.5 Z"/><text text-anchor="middle" pointer-events="none" font-size="8px" fill="#000000" x="57.62262023687758" y="3" font-family="sans-serif">WROTE</text></g></g><g class="layer nodes"><g class="node" transform="translate(135.0059807416117,226.15144377526946)"><circle class="outline" cx="0" cy="0" r="25" fill="#F79767" stroke="#f36924" stroke-width="2px"/><text text-anchor="middle" pointer-events="none" font-family="sans-serif" dy="1.5625" font-size="25" fill="#FFFFFF"/><text text-anchor="middle" pointer-events="none" font-family="sans-serif" dy="1.5625" font-size="25" fill="#FFFFFF"/><text text-anchor="middle" pointer-events="none" x="0" y="0" font-size="10px" fill="#FFFFFF" font-family="sans-serif"> Hugo</text><text text-anchor="middle" pointer-events="none" x="0" y="10" font-size="10px" fill="#FFFFFF" font-family="sans-serif"> Weaving</text></g><g class="node" transform="translate(89.29273064643499,111.64415266059058)"><circle class="outline" cx="0" cy="0" r="25" fill="#57C7E3" stroke="#23b3d7" stroke-width="2px"/><text text-anchor="middle" pointer-events="none" font-family="sans-serif" dy="1.5625" font-size="25" fill="#2A2C34"/><text text-anchor="middle" pointer-events="none" font-family="sans-serif" dy="1.5625" font-size="25" fill="#2A2C34"/><text text-anchor="middle" pointer-events="none" font-family="sans-serif" dy="1.5625" font-size="25" fill="#2A2C34"/><text text-anchor="middle" pointer-events="none" x="0" y="-5" font-size="10px" fill="#2A2C34" font-family="sans-serif"> Captain</text><text text-anchor="middle" pointer-events="none" x="0" y="5" font-size="10px" fill="#2A2C34" font-family="sans-serif"> America:</text><text text-anchor="middle" pointer-events="none" x="0" y="15" font-size="10px" fill="#2A2C34" font-family="sans-serif"> The Fi…</text></g><g class="node" transform="translate(199.48591868730557,167.58720613171357)"><circle class="outline" cx="0" cy="0" r="25" fill="#F79767" stroke="#f36924" stroke-width="2px"/><text text-anchor="middle" pointer-events="none" font-family="sans-serif" dy="1.5625" font-size="25" fill="#FFFFFF"/><text text-anchor="middle" pointer-events="none" font-family="sans-serif" dy="1.5625" font-size="25" fill="#FFFFFF"/><text text-anchor="middle" pointer-events="none" x="0" y="0" font-size="10px" fill="#FFFFFF" font-family="sans-serif"> Tommy</text><text text-anchor="middle" pointer-events="none" x="0" y="10" font-size="10px" fill="#FFFFFF" font-family="sans-serif"> Lee Jon…</text></g><g class="node" transform="translate(210.2421631921717,88.45240955650593)"><circle class="outline" cx="0" cy="0" r="25" fill="#F79767" stroke="#f36924" stroke-width="2px"/><text text-anchor="middle" pointer-events="none" font-family="sans-serif" dy="1.5625" font-size="25" fill="#FFFFFF"/><text text-anchor="middle" pointer-events="none" font-family="sans-serif" dy="1.5625" font-size="25" fill="#FFFFFF"/><text text-anchor="middle" pointer-events="none" font-family="sans-serif" dy="1.5625" font-size="25" fill="#FFFFFF"/><text text-anchor="middle" pointer-events="none" x="0" y="-5" font-size="10px" fill="#FFFFFF" font-family="sans-serif"> Samuel</text><text text-anchor="middle" pointer-events="none" x="0" y="5" font-size="10px" fill="#FFFFFF" font-family="sans-serif"> L.</text><text text-anchor="middle" pointer-events="none" x="0" y="15" font-size="10px" fill="#FFFFFF" font-family="sans-serif"> Jackson</text></g><g class="node" transform="translate(173.6291095357339,20.536453162090098)"><circle class="outline" cx="0" cy="0" r="25" fill="#F79767" stroke="#f36924" stroke-width="2px"/><text text-anchor="middle" pointer-events="none" font-family="sans-serif" dy="1.5625" font-size="25" fill="#FFFFFF"/><text text-anchor="middle" pointer-events="none" font-family="sans-serif" dy="1.5625" font-size="25" fill="#FFFFFF"/><text text-anchor="middle" pointer-events="none" x="0" y="0" font-size="10px" fill="#FFFFFF" font-family="sans-serif"> Joe</text><text text-anchor="middle" pointer-events="none" x="0" y="10" font-size="10px" fill="#FFFFFF" font-family="sans-serif"> Johnston</text></g><g class="node" transform="translate(103.07006614369455,-10.690988515396699)"><circle class="outline" cx="0" cy="0" r="25" fill="#F79767" stroke="#f36924" stroke-width="2px"/><text text-anchor="middle" pointer-events="none" font-family="sans-serif" dy="1.5625" font-size="25" fill="#FFFFFF"/><text text-anchor="middle" pointer-events="none" font-family="sans-serif" dy="1.5625" font-size="25" fill="#FFFFFF"/><text text-anchor="middle" pointer-events="none" x="0" y="0" font-size="10px" fill="#FFFFFF" font-family="sans-serif"> Chris</text><text text-anchor="middle" pointer-events="none" x="0" y="10" font-size="10px" fill="#FFFFFF" font-family="sans-serif"> Evans</text></g><g class="node" transform="translate(24.99983361982755,6.1946495567489155)"><circle class="outline" cx="0" cy="0" r="25" fill="#F79767" stroke="#f36924" stroke-width="2px"/><text text-anchor="middle" pointer-events="none" font-family="sans-serif" dy="1.5625" font-size="25" fill="#FFFFFF"/><text text-anchor="middle" pointer-events="none" font-family="sans-serif" dy="1.5625" font-size="25" fill="#FFFFFF"/><text text-anchor="middle" pointer-events="none" x="0" y="0" font-size="10px" fill="#FFFFFF" font-family="sans-serif"> Hayley</text><text text-anchor="middle" pointer-events="none" x="0" y="10" font-size="10px" fill="#FFFFFF" font-family="sans-serif"> Atwell</text></g><g class="node" transform="translate(-28.374038388009872,75.07630784594059)"><circle class="outline" cx="0" cy="0" r="25" fill="#F79767" stroke="#f36924" stroke-width="2px"/><text text-anchor="middle" pointer-events="none" font-family="sans-serif" dy="1.5625" font-size="25" fill="#FFFFFF"/><text text-anchor="middle" pointer-events="none" x="0" y="5" font-size="10px" fill="#FFFFFF" font-family="sans-serif"> Sebastian</text></g><g class="node" transform="translate(-20.67403212577278,164.98012099279913)"><circle class="outline" cx="0" cy="0" r="25" fill="#F79767" stroke="#f36924" stroke-width="2px"/><text text-anchor="middle" pointer-events="none" font-family="sans-serif" dy="1.5625" font-size="25" fill="#FFFFFF"/><text text-anchor="middle" pointer-events="none" font-family="sans-serif" dy="1.5625" font-size="25" fill="#FFFFFF"/><text text-anchor="middle" pointer-events="none" x="0" y="0" font-size="10px" fill="#FFFFFF" font-family="sans-serif"> Stephen</text><text text-anchor="middle" pointer-events="none" x="0" y="10" font-size="10px" fill="#FFFFFF" font-family="sans-serif"> McFeely</text></g><g class="node" transform="translate(44.80883800545193,225.50846714933513)"><circle class="outline" cx="0" cy="0" r="25" fill="#F79767" stroke="#f36924" stroke-width="2px"/><text text-anchor="middle" pointer-events="none" font-family="sans-serif" dy="1.5625" font-size="25" fill="#FFFFFF"/><text text-anchor="middle" pointer-events="none" x="0" y="5" font-size="10px" fill="#FFFFFF" font-family="sans-serif"> Christop…</text></g></g></svg>